<svg width="26" height="34" viewBox="0 0 26 34" fill="none" xmlns="http://www.w3.org/2000/svg">
<path d="M21.125 12.125V8.875C21.125 4.325 17.55 0.75 13 0.75C8.45 0.75 4.875 4.325 4.875 8.875V12.125C2.1125 12.125 0 14.2375 0 17V28.375C0 31.1375 2.1125 33.25 4.875 33.25H21.125C23.8875 33.25 26 31.1375 26 28.375V17C26 14.2375 23.8875 12.125 21.125 12.125ZM8.125 8.875C8.125 6.1125 10.2375 4 13 4C15.7625 4 17.875 6.1125 17.875 8.875V12.125H8.125V8.875ZM14.7875 22.6875L14.625 22.85V25.125C14.625 26.1 13.975 26.75 13 26.75C12.025 26.75 11.375 26.1 11.375 25.125V22.85C10.4 21.875 10.2375 20.4125 11.2125 19.4375C12.1875 18.4625 13.65 18.3 14.625 19.275C15.6 20.0875 15.7625 21.7125 14.7875 22.6875Z" fill="#555555"/>
</svg>
