<svg width="134" height="133" viewBox="0 0 134 133" fill="none" xmlns="http://www.w3.org/2000/svg">
<path fill-rule="evenodd" clip-rule="evenodd" d="M67 0.5C30.2739 0.5 0.5 30.05 0.5 66.5C0.5 102.95 30.2739 132.5 67 132.5C103.726 132.5 133.5 102.95 133.5 66.5C133.5 30.05 103.726 0.5 67 0.5ZM12.5909 66.5C12.5909 79.04 16.9013 90.584 24.1256 99.752C29.1992 93.1394 35.7444 87.7805 43.25 84.0939C50.7557 80.4073 59.0185 78.4928 67.393 78.5C75.6591 78.4922 83.8179 80.3571 91.2479 83.9527C98.6779 87.5482 105.183 92.7795 110.267 99.248C115.505 92.4296 119.032 84.4713 120.556 76.0315C122.08 67.5918 121.557 58.9132 119.03 50.7139C116.504 42.5146 112.046 35.0303 106.026 28.8802C100.007 22.7302 92.598 18.0912 84.4132 15.3471C76.2285 12.6029 67.503 11.8326 58.9587 13.0998C50.4144 14.367 42.297 17.6353 35.2781 22.6343C28.2592 27.6333 22.5406 34.2192 18.5954 41.8472C14.6503 49.4751 12.592 57.9258 12.5909 66.5ZM67 120.5C54.5098 120.519 42.3966 116.254 32.7102 108.428C36.6091 102.888 41.7985 98.3655 47.8371 95.2441C53.8756 92.1227 60.5845 90.4952 67.393 90.5C74.1165 90.4947 80.7443 92.0814 86.7259 95.1285C92.7075 98.1756 97.8703 102.595 101.786 108.02C92.0239 116.1 79.7111 120.518 67 120.5Z" fill="#0F1630"/>
<path fill-rule="evenodd" clip-rule="evenodd" d="M91.8931 48.3033C91.8931 54.6685 89.3453 60.773 84.8104 65.2738C80.2754 69.7747 74.1247 72.3033 67.7112 72.3033C61.2978 72.3033 55.1471 69.7747 50.6121 65.2738C46.0771 60.773 43.5294 54.6685 43.5294 48.3033C43.5294 41.9381 46.0771 35.8336 50.6121 31.3327C55.1471 26.8318 61.2978 24.3033 67.7112 24.3033C74.1247 24.3033 80.2754 26.8318 84.8104 31.3327C89.3453 35.8336 91.8931 41.9381 91.8931 48.3033ZM79.8021 48.3033C79.8021 51.4859 78.5283 54.5381 76.2608 56.7886C73.9933 59.039 70.9179 60.3033 67.7112 60.3033C64.5045 60.3033 61.4292 59.039 59.1617 56.7886C56.8942 54.5381 55.6203 51.4859 55.6203 48.3033C55.6203 45.1207 56.8942 42.0684 59.1617 39.818C61.4292 37.5676 64.5045 36.3033 67.7112 36.3033C70.9179 36.3033 73.9933 37.5676 76.2608 39.818C78.5283 42.0684 79.8021 45.1207 79.8021 48.3033Z" fill="#0F1630"/>
</svg>
