<svg width="39" height="40" viewBox="0 0 39 40" fill="none" xmlns="http://www.w3.org/2000/svg">
<path fill-rule="evenodd" clip-rule="evenodd" d="M19.75 7C17.4763 6.99958 15.2421 7.59554 13.2707 8.7284C11.2992 9.86125 9.65936 11.4914 8.51479 13.456C7.37022 15.4207 6.76097 17.6513 6.74785 19.925C6.73473 22.1987 7.3182 24.4361 8.44002 26.4139C9.19826 25.4284 10.173 24.6306 11.2888 24.082C12.4046 23.5334 13.6316 23.2487 14.875 23.25H24.625C25.8684 23.2487 27.0954 23.5334 28.2113 24.082C29.3271 24.6306 30.3018 25.4284 31.06 26.4139C32.1818 24.4361 32.7653 22.1987 32.7522 19.925C32.7391 17.6513 32.1298 15.4207 30.9852 13.456C29.8407 11.4914 28.2008 9.86125 26.2294 8.7284C24.2579 7.59554 22.0238 6.99958 19.75 7ZM32.6574 29.8735C34.8301 27.0411 36.0053 23.5698 36 20C36 11.0251 28.7249 3.75 19.75 3.75C10.7751 3.75 3.50002 11.0251 3.50002 20C3.49465 23.5698 4.66986 27.0411 6.84264 29.8735L6.83452 29.9028L7.41139 30.5739C8.93546 32.3557 10.8278 33.7859 12.9579 34.7658C15.088 35.7457 17.4053 36.2521 19.75 36.25C23.0444 36.2561 26.262 35.2554 28.9719 33.3819C30.1272 32.5837 31.1747 31.6399 32.0886 30.5739L32.6655 29.9028L32.6574 29.8735ZM19.75 10.25C18.4571 10.25 17.2171 10.7636 16.3029 11.6779C15.3886 12.5921 14.875 13.8321 14.875 15.125C14.875 16.4179 15.3886 17.6579 16.3029 18.5721C17.2171 19.4864 18.4571 20 19.75 20C21.0429 20 22.2829 19.4864 23.1972 18.5721C24.1114 17.6579 24.625 16.4179 24.625 15.125C24.625 13.8321 24.1114 12.5921 23.1972 11.6779C22.2829 10.7636 21.0429 10.25 19.75 10.25Z" fill="#555555"/>
</svg>
