<svg width="59" height="60" viewBox="0 0 59 60" fill="none" xmlns="http://www.w3.org/2000/svg">
<rect x="1" y="1.25" width="57.5" height="57.5" stroke="black"/>
<path fill-rule="evenodd" clip-rule="evenodd" d="M29.75 17C27.4763 16.9996 25.2421 17.5955 23.2707 18.7284C21.2992 19.8612 19.6594 21.4914 18.5148 23.456C17.3702 25.4207 16.761 27.6513 16.7479 29.925C16.7347 32.1987 17.3182 34.4361 18.44 36.4139C19.1983 35.4284 20.173 34.6306 21.2888 34.082C22.4046 33.5334 23.6316 33.2487 24.875 33.25H34.625C35.8684 33.2487 37.0954 33.5334 38.2113 34.082C39.3271 34.6306 40.3018 35.4284 41.06 36.4139C42.1818 34.4361 42.7653 32.1987 42.7522 29.925C42.7391 27.6513 42.1298 25.4207 40.9852 23.456C39.8407 21.4914 38.2008 19.8612 36.2294 18.7284C34.2579 17.5955 32.0238 16.9996 29.75 17ZM42.6574 39.8735C44.8301 37.0411 46.0053 33.5698 46 30C46 21.0251 38.7249 13.75 29.75 13.75C20.7751 13.75 13.5 21.0251 13.5 30C13.4947 33.5698 14.6699 37.0411 16.8426 39.8735L16.8345 39.9028L17.4114 40.5739C18.9355 42.3557 20.8278 43.7859 22.9579 44.7658C25.088 45.7457 27.4053 46.2521 29.75 46.25C33.0444 46.2561 36.262 45.2554 38.9719 43.3819C40.1272 42.5837 41.1747 41.6399 42.0886 40.5739L42.6655 39.9028L42.6574 39.8735ZM29.75 20.25C28.4571 20.25 27.2171 20.7636 26.3029 21.6779C25.3886 22.5921 24.875 23.8321 24.875 25.125C24.875 26.4179 25.3886 27.6579 26.3029 28.5721C27.2171 29.4864 28.4571 30 29.75 30C31.0429 30 32.2829 29.4864 33.1972 28.5721C34.1114 27.6579 34.625 26.4179 34.625 25.125C34.625 23.8321 34.1114 22.5921 33.1972 21.6779C32.2829 20.7636 31.0429 20.25 29.75 20.25Z" fill="#555555"/>
</svg>
