<svg width="30" height="32" viewBox="0 0 30 32" fill="none" xmlns="http://www.w3.org/2000/svg">
<path d="M15 24.381C15.9614 24.381 16.8834 24.0599 17.5633 23.4883C18.2431 22.9168 18.625 22.1416 18.625 21.3333C18.625 20.5251 18.2431 19.7499 17.5633 19.1783C16.8834 18.6068 15.9614 18.2857 15 18.2857C14.0386 18.2857 13.1166 18.6068 12.4367 19.1783C11.7569 19.7499 11.375 20.5251 11.375 21.3333C11.375 22.1416 11.7569 22.9168 12.4367 23.4883C13.1166 24.0599 14.0386 24.381 15 24.381ZM25.875 10.6667C26.8364 10.6667 27.7584 10.9878 28.4383 11.5593C29.1181 12.1308 29.5 12.906 29.5 13.7143V28.9524C29.5 29.7607 29.1181 30.5358 28.4383 31.1074C27.7584 31.6789 26.8364 32 25.875 32H4.125C3.16359 32 2.24156 31.6789 1.56174 31.1074C0.881918 30.5358 0.5 29.7607 0.5 28.9524V13.7143C0.5 12.906 0.881918 12.1308 1.56174 11.5593C2.24156 10.9878 3.16359 10.6667 4.125 10.6667H5.9375V7.61905C5.9375 5.59835 6.8923 3.66042 8.59184 2.23157C10.2914 0.802719 12.5965 0 15 0C16.1901 0 17.3686 0.197073 18.4681 0.579966C19.5676 0.962858 20.5666 1.52407 21.4082 2.23157C22.2497 2.93906 22.9172 3.77898 23.3727 4.70336C23.8281 5.62775 24.0625 6.6185 24.0625 7.61905V10.6667H25.875ZM15 3.04762C13.5579 3.04762 12.1748 3.52925 11.1551 4.38656C10.1354 5.24387 9.5625 6.40663 9.5625 7.61905V10.6667H20.4375V7.61905C20.4375 6.40663 19.8646 5.24387 18.8449 4.38656C17.8252 3.52925 16.4421 3.04762 15 3.04762Z" fill="#555555"/>
</svg>
