<svg width="37" height="34" viewBox="0 0 37 34" fill="none" xmlns="http://www.w3.org/2000/svg">
<path d="M14.0257 7.95893L11.2143 5.47618C11.8431 4.08279 12.9381 2.88681 14.3568 2.04387C15.7755 1.20093 17.4521 0.750085 19.1686 0.75C23.9 0.75 27.74 4.10021 27.74 8.22814V11.2194H29.4543C30.3636 11.2194 31.2357 11.5345 31.8787 12.0955C32.5216 12.6565 32.8829 13.4173 32.8829 14.2107V24.3809L17.7971 11.2194H24.3114V8.22814C24.3114 5.7454 22.0143 3.74126 19.1686 3.74126C16.4429 3.74126 14.2143 5.61079 14.0257 7.95893ZM36.5 31.3506L34.3229 33.25L31.9571 31.186C31.34 31.7843 30.4486 32.1582 29.4543 32.1582H8.88286C6.98 32.1582 5.45429 30.8271 5.45429 29.1669V14.2107C5.45429 13.4173 5.81551 12.6565 6.45849 12.0955C7.10147 11.5345 7.97354 11.2194 8.88286 11.2194H9.07143L0.5 3.74126L2.69429 1.84181L36.5 31.3506ZM22.34 22.7956L17.9 18.9219C16.5971 19.3556 15.74 20.4325 15.74 21.6888C15.74 22.4821 16.1012 23.243 16.7442 23.8039C17.3872 24.3649 18.2593 24.6801 19.1686 24.6801C20.6086 24.6801 21.8429 23.9322 22.34 22.7956Z" fill="#555555"/>
</svg>
